# xmcd CD database file
#
# Track frame offsets:
#	150
#	24011
#	41690
#	59849
#	78113
#	96632
#	114589
#	134332
#	151521
#	168782
#
# Disc length: 2462 seconds
#
# Revision: 0
# Processed by: cddbd v1.5.2PL0 Copyright (c) Steve Scherf et al.
# Submitted via: CDex 1.51
#
DISCID=74099c0a
DTITLE=Mars Lasar - Christmas From Mars 2
DYEAR=2006
DGENRE=New Age
TTITLE0=Jennifer's Angels
TTITLE1=Immanuel
TTITLE2=Star Is Shining
TTITLE3=In A Manger
TTITLE4=All Is Bright
TTITLE5=Son Of Mary
TTITLE6=My Prayer
TTITLE7=Our Christmas Tree
TTITLE8=Michael's Holy Night
TTITLE9=Willy's Hallelujah
EXTD=YEAR: 2006
EXTT0=
EXTT1=
EXTT2=
EXTT3=
EXTT4=
EXTT5=
EXTT6=
EXTT7=
EXTT8=
EXTT9=
PLAYORDER=
